<svg xmlns="http://www.w3.org/2000/svg" width="100" height="132" viewBox="0 0 100 132"><style>.n{font:400 8.5px Audiowide,system-ui,sans-serif;fill:#FFFFFF;text-anchor:middle;letter-spacing:.05em;opacity:.95}.v{font:400 26px Audiowide,system-ui,sans-serif;fill:#FFFFFF;text-anchor:middle}.vp{font:400 34px Audiowide,system-ui,sans-serif;fill:#FFFFFF;text-anchor:middle}</style><rect width="100" height="132" rx="8" fill="#E8542F"/><text x="50" y="16.5" class="n">ROAD</text><text x="50" y="27.5" class="n">BUILDING</text><g transform="translate(21.5 63.5) scale(0.6)"><g transform="scale(-1 1) rotate(60 -.01 -5.02)"><path fill="#F6EFE8" d="M0.4163,5.6005 L8.8239,0.4846 L17.2316,5.6005 L17.2316,74.3496 L8.8239,79.4655 L0.4163,74.3496 Z"/><polygon fill="#FFFFFF" points="0.4163,5.6005 8.8239,0.4846 8.8239,69.2337 0.4163,74.3496"/><polygon fill="#E4D6C8" points="0.4163,74.3496 8.8239,69.2337 17.2316,74.3496 8.8239,79.4655"/></g></g><g transform="translate(36.5 42.5) scale(0.6)"><g transform="scale(-1 1) rotate(60 -.01 -5.02)"><path fill="#F6EFE8" d="M0.4163,5.6005 L8.8239,0.4846 L17.2316,5.6005 L17.2316,74.3496 L8.8239,79.4655 L0.4163,74.3496 Z"/><polygon fill="#FFFFFF" points="0.4163,5.6005 8.8239,0.4846 8.8239,69.2337 0.4163,74.3496"/><polygon fill="#E4D6C8" points="0.4163,74.3496 8.8239,69.2337 17.2316,74.3496 8.8239,79.4655"/></g></g><text x="50" y="120" class="v">+2</text></svg>